# xmcd
# 
# Track frame offsets:
#     150
#     20100
#     37497
#     53772
#     69297
#     86547
#     104247
#     120522
#     138672
#     158772
#     172197
#     189162
# 
# Disc length: 2677
# 
# Revision: 1
# Processed by: cddbd v1.5.2PL0 Copyright (c) Steve Scherf et al.
# Submitted via: fre:ac v1.0.17
# 
DISCID=ac0a730c
DTITLE=Carmen, Phil - No Sweat
DYEAR=1995
DGENRE=Blues
TTITLE0=No Sweat
TTITLE1=Caught The Love Hug
TTITLE2=Wanna Take Your Heart
TTITLE3=Mirror, Mirror On The Wall
TTITLE4=Gone In The Rain
TTITLE5=Retread Rider
TTITLE6=The Moon Ain't Gonna Shine On The Bright Side
TTITLE7=Shining Eyes
TTITLE8=Rovin' On
TTITLE9=I Fond You in Time
TTITLE10=I'm A Working Class Man
TTITLE11=I Can't Sleep
EXTD=YEAR: 1995
EXTT0=
EXTT1=
EXTT2=
EXTT3=
EXTT4=
EXTT5=
EXTT6=
EXTT7=
EXTT8=
EXTT9=
EXTT10=
EXTT11=
PLAYORDER=
